<svg width="69" height="69" viewBox="0 0 69 69" fill="none" xmlns="http://www.w3.org/2000/svg">
<g clip-path="url(#clip0_60_1741)">
<path d="M60.0877 11.9954L59.7074 5.57016C59.6394 4.5106 58.7565 3.69556 57.6833 3.76348C56.6238 3.8314 55.8223 4.72795 55.8766 5.78751L55.9853 7.6757C50.443 3.53255 43.7189 1.27759 36.6552 1.27759C28.0157 1.27759 19.8924 4.64644 13.7931 10.7457C13.046 11.4928 13.046 12.7018 13.7931 13.4625C14.8255 14.4949 16.1296 13.8429 16.51 13.4625C21.8893 8.08322 29.0481 5.1083 36.6687 5.1083C42.7272 5.1083 48.4869 6.98291 53.2957 10.4604L51.6384 10.5691C50.5789 10.637 49.7774 11.5336 49.8317 12.5931C49.8861 13.6119 50.7419 14.3998 51.7471 14.3998C51.7878 14.3998 58.281 14.0195 58.281 14.0195C59.3406 13.9515 60.1421 13.055 60.0877 11.9954Z" fill="#0D1C41"/>
<path d="M29.2791 61.1427C15.6135 57.4886 6.94686 44.4343 8.30527 30.7958L9.2154 32.1678C9.58217 32.7248 10.7504 33.3904 11.8643 32.7112C12.7608 32.1542 12.9918 30.9453 12.4077 30.0623L8.8758 24.683C8.59053 24.2619 8.15584 23.963 7.66681 23.8544C7.1642 23.7593 6.64801 23.8544 6.2269 24.126L0.861179 27.6579C-0.0217876 28.242 -0.266301 29.4238 0.317815 30.3068C0.901931 31.1898 2.08375 31.4343 2.96671 30.8502L4.55605 29.8042C2.69503 45.5074 12.5978 60.6401 28.2875 64.8376C28.4505 64.8783 30.1485 65.0821 30.6375 63.4792C30.95 62.4739 30.3115 61.4144 29.2791 61.1427Z" fill="#0D1C41"/>
<path d="M67.8986 25.24C67.6269 24.2212 66.5674 23.6099 65.5486 23.8816C64.5298 24.1532 63.9185 25.2128 64.1901 26.2316C67.8443 39.8972 60.8892 53.9432 48.3918 59.5806L49.1254 58.0999C49.6008 57.149 49.2205 56.0079 48.2696 55.5325C47.3187 55.0571 46.164 55.4374 45.7022 56.3883L42.8224 62.1344C42.3469 63.0853 42.7273 64.2263 43.6782 64.7018L49.4242 67.5816C49.6959 67.7174 51.2309 68.057 51.9916 66.7258C52.5214 65.8021 52.0867 64.6338 51.1358 64.1584L49.4106 63.289C63.9456 57.0675 72.0961 40.9432 67.8986 25.24Z" fill="#0D1C41"/>
<path d="M27.8119 40.4949L31.2623 36.8951C32.6071 35.4959 34.7806 33.5127 34.7806 30.6192C34.7806 28.8126 33.395 24.7781 28.5726 24.7781C24.9049 24.7781 22.4598 27.6036 21.5632 28.9891L24.9728 31.0132C26.046 29.3016 27.1871 28.4458 28.3825 28.4458C30.7053 28.4458 30.6238 30.0487 30.6238 30.6872C30.6238 32.3716 28.6134 34.2598 27.4859 35.4144L21.8893 41.1469V44.312H35.3511V40.4949H27.8119Z" fill="#0D1C41"/>
<path d="M49.5873 36.0529V32.7248H45.4985V36.0529H42.7953L49.2613 25.2128H44.6291L37.8235 36.4876V39.7342H45.4985V44.2984H49.5873V39.7342H51.7472V36.0529H49.5873Z" fill="#0D1C41"/>
<path d="M56.3928 22.754C55.7408 22.754 55.1567 23.0121 54.6405 23.5419V20.499H52.9153V29.0298H54.6405V25.6881C54.6405 25.1991 54.7627 24.2211 55.931 24.2211C56.6237 24.2211 56.9769 24.6965 56.9769 25.6474V29.0298H58.7021V25.2806C58.7021 24.0581 57.9414 22.754 56.3928 22.754Z" fill="#0D1C41"/>
</g>
<defs>
<clipPath id="clip0_60_1741">
<rect width="69" height="69" fill="white"/>
</clipPath>
</defs>
</svg>
