<svg width="95" height="70" viewBox="0 0 95 70" fill="none" xmlns="http://www.w3.org/2000/svg">
<path d="M45.4081 33.7213C38.7104 20.1399 21.4081 -4.34384 5.78015 6.37244C-9.84776 17.0887 21.8907 45.0346 28.0302 47.2672C34.1698 49.4997 37.4516 43.4498 30.8964 37.0701C22.4488 28.8486 11.9197 61.6282 23.6406 67.2096C33.0174 71.6748 47.5651 47.8253 48.1987 43.2096C48.8324 38.5939 45.4081 33.7213 45.4081 33.7213Z" stroke="black" stroke-width="3"/>
<path d="M49.0202 31.4887C55.7178 17.9073 73.0202 -6.57638 88.6481 4.1399C104.276 14.8562 72.5375 42.8021 66.398 45.0346C60.2585 47.2672 56.9766 41.2173 63.5318 34.8376C71.9794 26.616 82.5085 59.3957 70.7876 64.9771C61.4109 69.4422 46.8631 45.5928 46.2295 40.9771C45.5958 36.3614 49.0202 31.4887 49.0202 31.4887Z" stroke="black" stroke-width="3"/>
</svg>
