<svg width="58" height="58" viewBox="0 0 58 58" fill="none" xmlns="http://www.w3.org/2000/svg">
<path d="M45.7961 35.9288C44.6087 34.6925 43.1765 34.0314 41.6585 34.0314C40.1529 34.0314 38.7084 34.6802 37.472 35.9166L33.6038 39.7726C33.2855 39.6012 32.9672 39.4421 32.6612 39.2829C32.2205 39.0626 31.8043 38.8545 31.4493 38.6342C27.8259 36.3328 24.533 33.3337 21.3747 29.4532C19.8445 27.5191 18.8163 25.891 18.0696 24.2384C19.0733 23.3203 20.0037 22.3655 20.9095 21.4474C21.2523 21.1046 21.5951 20.7496 21.9378 20.4069C24.5085 17.8362 24.5085 14.5066 21.9378 11.9359L18.5959 8.59401C18.2165 8.21453 17.8247 7.82281 17.4575 7.43109C16.723 6.67213 15.9518 5.88868 15.1561 5.15421C13.9687 3.97904 12.5487 3.35474 11.0553 3.35474C9.56186 3.35474 8.11738 3.97904 6.89326 5.15421C6.88101 5.16645 6.88101 5.16645 6.86877 5.17869L2.70673 9.37746C1.13985 10.9443 0.246232 12.854 0.0503711 15.0697C-0.24342 18.6441 0.809331 21.9737 1.61726 24.1527C3.60035 29.5021 6.56274 34.4599 10.9818 39.7726C16.3435 46.1748 22.7947 51.2304 30.164 54.7927C32.9795 56.127 36.7375 57.7061 40.9363 57.9754C41.1934 57.9876 41.4627 57.9999 41.7075 57.9999C44.5352 57.9999 46.9101 56.9839 48.7707 54.9641C48.783 54.9396 48.8075 54.9273 48.8197 54.9028C49.4562 54.1316 50.1907 53.4339 50.9619 52.6872C51.4883 52.1853 52.0269 51.6589 52.5533 51.108C53.7652 49.8472 54.4017 48.3782 54.4017 46.8726C54.4017 45.3546 53.7529 43.8979 52.5166 42.6738L45.7961 35.9288ZM50.1785 48.8189C50.1662 48.8189 50.1662 48.8312 50.1785 48.8189C49.7011 49.333 49.2114 49.7982 48.685 50.3124C47.8894 51.0713 47.0814 51.867 46.3225 52.7606C45.0861 54.0827 43.6294 54.707 41.7197 54.707C41.5361 54.707 41.3403 54.707 41.1566 54.6947C37.521 54.4622 34.1424 53.0422 31.6084 51.8303C24.6799 48.4762 18.5959 43.7143 13.5403 37.6793C9.366 32.6482 6.57498 27.9965 4.72655 23.002C3.58811 19.9539 3.1719 17.5791 3.35552 15.339C3.47793 13.9067 4.02879 12.7193 5.04482 11.7033L9.2191 7.52902C9.81892 6.96592 10.4555 6.65989 11.0798 6.65989C11.851 6.65989 12.4753 7.12506 12.867 7.51678C12.8792 7.52902 12.8915 7.54126 12.9037 7.5535C13.6505 8.25126 14.3604 8.97349 15.1072 9.74469C15.4866 10.1364 15.8784 10.5281 16.2701 10.9321L19.612 14.274C20.9095 15.5716 20.9095 16.7712 19.612 18.0688C19.257 18.4238 18.9142 18.7788 18.5592 19.1215C17.5309 20.1743 16.5516 21.1536 15.4866 22.1084C15.4622 22.1329 15.4377 22.1451 15.4254 22.1696C14.3727 23.2224 14.5685 24.2506 14.7889 24.9484C14.8011 24.9851 14.8134 25.0218 14.8256 25.0586C15.6947 27.1641 16.9189 29.1472 18.7796 31.5097L18.7918 31.522C22.1704 35.684 25.7326 38.9279 29.6621 41.4129C30.164 41.7312 30.6781 41.9883 31.1677 42.2331C31.6084 42.4534 32.0246 42.6615 32.3796 42.8819C32.4286 42.9064 32.4776 42.9431 32.5265 42.9676C32.9427 43.1757 33.3345 43.2736 33.7384 43.2736C34.7544 43.2736 35.391 42.6371 35.5991 42.429L39.7856 38.2424C40.2018 37.8262 40.8629 37.3243 41.6341 37.3243C42.393 37.3243 43.0173 37.8017 43.3968 38.218C43.409 38.2302 43.409 38.2302 43.4213 38.2424L50.1662 44.9874C51.4271 46.236 51.4271 47.5213 50.1785 48.8189Z" fill="black"/>
<path d="M31.3024 13.7966C34.5096 14.3352 37.4231 15.8532 39.7489 18.179C42.0748 20.5048 43.5804 23.4183 44.1313 26.6255C44.266 27.4334 44.9637 27.9965 45.7594 27.9965C45.8573 27.9965 45.943 27.9843 46.0409 27.972C46.9468 27.8251 47.5466 26.9683 47.3997 26.0624C46.7387 22.1819 44.9025 18.6442 42.0992 15.8409C39.296 13.0377 35.7583 11.2015 31.8778 10.5404C30.9719 10.3935 30.1273 10.9934 29.9681 11.887C29.809 12.7806 30.3966 13.6497 31.3024 13.7966Z" fill="#DDD0A4"/>
<path d="M57.8905 25.585C56.801 19.1951 53.7896 13.3804 49.1624 8.75324C44.5352 4.12603 38.7206 1.11467 32.3306 0.0251944C31.437 -0.133942 30.5924 0.478122 30.4332 1.37174C30.2863 2.27759 30.8862 3.12224 31.792 3.28138C37.4965 4.24844 42.699 6.95377 46.8366 11.0791C50.9741 15.2166 53.6672 20.4192 54.6343 26.1236C54.7689 26.9316 55.4667 27.4947 56.2624 27.4947C56.3603 27.4947 56.446 27.4824 56.5439 27.4702C57.4376 27.3355 58.0496 26.4786 57.8905 25.585Z" fill="#DDD0A4"/>
</svg>
