<svg width="772" height="711" viewBox="0 0 772 711" fill="none" xmlns="http://www.w3.org/2000/svg">
<path opacity="0.8" d="M355.553 43.782C396.737 8.07414 534.304 48.1165 570.892 83.3896C616.309 127.205 628.967 174.65 607.295 238.17C589.163 291.15 460.559 351.81 422.714 392.394C343.536 477.332 252.845 462.565 157.955 387.53C118.791 350.868 87.8552 250.183 277.42 140.738C323.941 116.343 319.625 74.9269 355.553 43.782Z" fill="#A89060"/>
<path d="M386 599.152C551.335 599.152 685.366 591.327 685.366 581.674C685.366 572.021 551.335 564.196 386 564.196C220.665 564.196 86.6338 572.021 86.6338 581.674C86.6338 591.327 220.665 599.152 386 599.152Z" fill="#F5F5F5"/>
<path d="M299.644 118.428C301.188 111.928 317.338 105.752 331.234 115.34C337.394 119.511 342.015 125.589 344.385 132.641C346.756 139.692 346.747 147.327 344.358 154.372C336.901 176.451 375.825 175.633 384.842 212.859C391.96 242.195 385.367 283.744 345.64 281.49C285.007 278.047 290.241 218.788 287.585 187.645C284.93 156.503 251.842 121.578 299.644 118.428Z" fill="#263238"/>
<path d="M279.618 201.573C279.356 206.081 278.831 210.203 278.244 214.48C277.657 218.757 276.839 222.941 275.928 227.141C275.017 231.341 273.983 235.541 272.67 239.678C271.403 243.878 269.897 248.002 268.162 252.03L266.803 255.118C266.602 255.566 266.232 256.246 265.954 256.817C265.676 257.388 265.305 257.913 264.981 258.469C263.711 260.449 262.297 262.332 260.751 264.105C257.874 267.397 254.779 270.492 251.487 273.368C245.104 279.01 238.313 284.171 231.168 288.809L227.061 283.312C229.963 280.502 232.928 277.599 235.784 274.696C238.641 271.794 241.466 268.845 244.153 265.849C246.8 262.945 249.299 259.91 251.641 256.755C252.712 255.278 253.681 253.73 254.544 252.123C254.714 251.768 254.93 251.397 255.069 251.058C255.208 250.718 255.362 250.44 255.532 249.931L256.582 247.213C259.231 239.752 261.296 232.097 262.758 224.316C263.545 220.394 264.117 216.41 264.703 212.442C265.29 208.474 265.738 204.383 266.077 200.615L279.618 201.573Z" fill="#FFB573"/>
<path d="M270.354 185.361C264.873 186.75 261.09 209.323 261.09 209.323L282.073 223.59C282.073 223.59 290.704 196.832 286.474 190.795C282.027 184.496 278.352 183.322 270.354 185.361Z" fill="#4A607A"/>
<path opacity="0.2" d="M270.848 190.394L266.633 213.152L275.125 218.911L270.848 190.394Z" fill="black"/>
<path d="M229.562 281.428L215.434 283.682L223.494 292.607C223.494 292.607 231.816 290.708 233.283 285.381L229.562 281.428Z" fill="#FFB573"/>
<path d="M208.749 285.458L216.808 294.181L223.494 292.606L215.434 283.682L208.749 285.458Z" fill="#FFB573"/>
<path d="M300.03 565.246H286.721L285.825 534.428H299.134L300.03 565.246Z" fill="#FFB573"/>
<path d="M340.11 565.901L326.8 565.893L322.547 535.073L335.856 535.082L340.11 565.901Z" fill="#FFB573"/>
<path d="M325.359 563.301L340.136 561.108C340.392 561.064 340.655 561.115 340.876 561.252C341.096 561.388 341.259 561.6 341.335 561.848L344.771 573.264C344.839 573.552 344.848 573.851 344.795 574.143C344.743 574.434 344.631 574.712 344.466 574.957C344.301 575.203 344.087 575.412 343.837 575.572C343.588 575.731 343.308 575.837 343.015 575.882C337.852 576.555 335.322 576.621 328.817 577.596C324.819 578.195 314.567 581.64 309.041 582.465C303.515 583.29 302.414 577.868 304.6 577.011C311.778 574.419 318.193 570.07 323.257 564.36C323.818 563.779 324.558 563.406 325.359 563.301Z" fill="#263238"/>
<path d="M286.258 563.718H301.219C301.473 563.711 301.721 563.799 301.915 563.965C302.109 564.13 302.235 564.361 302.269 564.613L303.983 576.456C304.013 576.754 303.98 577.055 303.887 577.34C303.794 577.625 303.642 577.887 303.441 578.109C303.24 578.332 302.995 578.51 302.722 578.632C302.448 578.754 302.152 578.817 301.852 578.818C296.633 578.725 294.132 578.417 287.539 578.417C283.494 578.417 275.187 578.833 269.551 578.833C263.916 578.833 263.669 573.321 265.985 572.812C276.422 570.573 280.529 567.485 284.034 564.536C284.655 564.009 285.443 563.719 286.258 563.718Z" fill="#263238"/>
<g opacity="0.2">
<path opacity="0.2" d="M285.841 534.443L286.288 550.331H299.598L299.15 534.443H285.841Z" fill="black"/>
<path opacity="0.2" d="M334.128 534.37L320.88 535.796L324.787 551.364L338.019 549.934L334.128 534.37Z" fill="black"/>
</g>
<path d="M270.354 185.36C270.354 185.36 264.008 187.584 276.716 265.648H330.756C329.845 243.646 329.829 230.136 340.344 184.944C332.776 183.357 325.103 182.325 317.385 181.856C309.217 181.268 301.018 181.268 292.85 181.856C282.305 182.952 270.354 185.36 270.354 185.36Z" fill="#4A607A"/>
<path opacity="0.2" d="M335.882 202.838C330.987 204.058 326.463 209.4 327.004 219.236C327.308 223.697 328.871 227.98 331.512 231.588C332.377 224.022 333.828 215.237 336.144 203.996L335.882 202.838Z" fill="black"/>
<path d="M295.691 203.533C295.691 203.533 302.717 207.872 304.554 214.341C312.181 208.752 322.542 193.204 322.958 183.894C322.96 183.623 322.909 183.354 322.807 183.103C322.704 182.852 322.553 182.624 322.362 182.432C322.172 182.239 321.945 182.087 321.694 181.983C321.444 181.878 321.176 181.825 320.905 181.825C319.729 181.795 318.553 181.846 317.385 181.979L295.691 203.533Z" fill="#FAFAFA"/>
<path d="M295.691 203.533C295.691 203.533 288.666 207.872 286.829 214.341C278.63 208.335 283.185 188.51 287.879 181.917C289.531 181.743 291.198 181.743 292.85 181.917L295.691 203.533Z" fill="#FAFAFA"/>
<path d="M314.976 154.311C313.432 162.2 311.888 176.668 317.4 181.948C312.279 191 304.777 198.476 295.707 203.564C284.76 194.825 292.866 181.948 292.866 181.948C301.667 179.848 301.435 173.302 299.907 167.172L314.976 154.311Z" fill="#FFB573"/>
<path opacity="0.2" d="M308.8 159.56L299.876 167.172C300.261 168.597 300.514 170.055 300.632 171.526C303.998 171.032 309.294 168.176 310.02 164.516C310.344 162.787 309.109 160.378 308.8 159.56Z" fill="black"/>
<path d="M328.193 141.619C324.549 154.31 323.267 159.761 315.3 164.933C303.319 172.653 288.527 165.427 288.311 151.902C288.11 139.72 294.116 121.022 307.858 118.69C310.884 118.162 313.995 118.416 316.894 119.43C319.794 120.443 322.386 122.182 324.424 124.48C326.462 126.778 327.878 129.559 328.538 132.559C329.198 135.559 329.079 138.678 328.193 141.619Z" fill="#FFB573"/>
<path d="M300.787 119.817C301.389 124.11 324.888 137.913 329.351 130.718C333.813 123.523 327.39 118.104 317.385 116.729C311.662 115.831 305.804 116.921 300.787 119.817Z" fill="#263238"/>
<path d="M316.103 122.149C313.216 125.947 319.33 153.307 328.084 150.728C336.839 148.15 336.437 139.395 330.354 131.32C326.912 126.595 321.83 123.324 316.103 122.149Z" fill="#263238"/>
<path d="M276.715 265.679C276.715 265.679 266.216 368.232 267.112 408.762C268.023 450.975 283.494 547.258 283.494 547.258H301.481C301.481 547.258 298.64 453.445 300.231 411.989C301.96 366.796 316.319 265.679 316.319 265.679H276.715Z" fill="#DDD0A4"/>
<path d="M331.42 264.784C331.42 264.784 341.919 367.336 341.023 407.866C340.112 450.079 340.081 546.363 340.081 546.363H322.094C322.094 546.363 311.888 453.152 307.904 411.093C303.552 365.144 291.816 264.784 291.816 264.784H331.42Z" fill="#DDD0A4"/>
<path d="M303.01 547.891H281.904L280.36 541.16L303.998 540.341L303.01 547.891Z" fill="#263238"/>
<path opacity="0.2" d="M299.804 294.291C286.526 320.987 297.133 369.7 301.827 387.827C304.236 360.606 308.296 327.333 311.461 302.906C309.439 289.072 305.919 281.97 299.804 294.291Z" fill="black"/>
<path d="M341.782 548.852L319.269 548.831L316.874 541.761L343.362 540.59L341.782 548.852Z" fill="#263238"/>
<path d="M141.446 130.085C128 141.986 118.384 157.606 113.816 174.972C109.247 192.337 109.931 210.667 115.78 227.644C121.629 244.62 132.381 259.481 146.676 270.347C160.972 281.213 178.168 287.596 196.091 288.689C214.014 289.782 231.858 285.535 247.368 276.486C262.877 267.437 275.355 253.992 283.223 237.852C291.091 221.711 293.996 203.6 291.571 185.808C289.145 168.017 281.499 151.344 269.598 137.898C253.637 119.872 231.171 108.923 207.139 107.457C183.108 105.992 159.478 114.132 141.446 130.085ZM252.259 255.304C240.94 265.318 226.906 271.751 211.931 273.79C196.956 275.828 181.713 273.38 168.13 266.756C154.546 260.131 143.232 249.627 135.618 236.572C128.004 223.518 124.432 208.498 125.354 193.413C126.276 178.329 131.651 163.856 140.798 151.826C149.945 139.796 162.454 130.748 176.744 125.827C191.033 120.906 206.461 120.333 221.076 124.18C235.691 128.027 248.837 136.121 258.852 147.44C265.501 154.955 270.606 163.706 273.873 173.194C277.14 182.682 278.507 192.721 277.895 202.737C277.283 212.753 274.704 222.551 270.305 231.57C265.906 240.589 259.774 248.654 252.259 255.304Z" fill="#263238"/>
<path opacity="0.3" d="M197.354 267.98C183.524 267.148 170.252 262.232 159.217 253.856C148.181 245.479 139.878 234.018 135.358 220.921C130.837 207.825 130.303 193.682 133.822 180.282C137.341 166.881 144.755 154.826 155.127 145.64C165.499 136.455 178.362 130.552 192.09 128.678C205.817 126.804 219.792 129.044 232.246 135.115C244.7 141.185 255.074 150.812 262.055 162.78C269.036 174.747 272.312 188.516 271.466 202.344C270.329 220.871 261.886 238.19 247.99 250.496C234.094 262.802 215.883 269.091 197.354 267.98Z" fill="#4A607A"/>
<g opacity="0.5">
<path opacity="0.5" d="M205.877 128.17H204.565L131.811 192.555L131.719 193.868C130.775 209.049 134.82 224.122 143.237 236.791L247.04 144.815C235.498 134.931 221.045 129.087 205.877 128.17Z" fill="#FAFAFA"/>
<path opacity="0.5" d="M253.818 151.392L148.934 244.202C152.437 248.247 156.395 251.874 160.73 255.01L263.036 164.423C260.47 159.742 257.377 155.37 253.818 151.392Z" fill="#FAFAFA"/>
</g>
<path d="M273.056 266.745L261.106 277.321C260.237 278.088 259.099 278.48 257.941 278.411C256.784 278.341 255.701 277.816 254.93 276.951C254.17 276.078 253.783 274.942 253.853 273.787C253.922 272.632 254.442 271.55 255.3 270.775L267.251 260.198C268.122 259.433 269.261 259.044 270.419 259.116C271.576 259.188 272.658 259.716 273.427 260.584C274.193 261.451 274.585 262.586 274.515 263.741C274.446 264.896 273.921 265.976 273.056 266.745Z" fill="#263238"/>
<path d="M268.656 264.784C277.657 272.704 286.273 280.98 294.78 289.364C303.288 297.748 311.595 306.348 319.809 314.902C328.023 323.456 336.082 332.287 344.08 341.15C351.584 350.414 361.805 357.269 363.334 371.814C363.454 372.977 363.295 374.152 362.87 375.241C362.445 376.331 361.768 377.304 360.892 378.079C360.017 378.855 358.97 379.411 357.837 379.701C356.705 379.992 355.519 380.008 354.379 379.75C340.112 376.461 334.569 365.483 326.293 356.899C318.491 347.892 310.802 338.803 303.226 329.632C295.65 320.46 288.213 311.14 280.915 301.67C273.628 292.22 266.463 282.663 259.685 272.766C258.815 271.554 258.425 270.063 258.59 268.58C258.754 267.097 259.462 265.728 260.577 264.736C261.691 263.744 263.133 263.2 264.625 263.209C266.117 263.218 267.553 263.779 268.656 264.784Z" fill="#263238"/>
<path d="M306.916 140.476C306.685 141.526 305.944 142.252 305.249 142.02C304.554 141.789 304.199 140.893 304.43 139.859C304.662 138.824 305.403 138.083 306.098 138.315C306.793 138.546 307.148 139.426 306.916 140.476Z" fill="#263238"/>
<path d="M295.074 137.852C294.842 138.901 294.086 139.627 293.406 139.473C292.727 139.318 292.356 138.346 292.588 137.296C292.82 136.246 293.561 135.52 294.256 135.675C294.95 135.829 295.306 136.802 295.074 137.852Z" fill="#263238"/>
<path d="M294.549 135.798L292.187 134.517C292.187 134.517 293.036 136.771 294.549 135.798Z" fill="#263238"/>
<path d="M298.301 140.554C296.836 142.733 295.08 144.702 293.082 146.405C293.531 146.908 294.084 147.306 294.703 147.573C295.321 147.84 295.991 147.968 296.664 147.949L298.301 140.554Z" fill="#ED893E"/>
<path d="M301.466 153.307C300.946 153.27 300.43 153.193 299.922 153.075C299.882 153.066 299.845 153.049 299.812 153.026C299.779 153.002 299.751 152.972 299.729 152.938C299.708 152.904 299.693 152.865 299.687 152.825C299.68 152.785 299.681 152.744 299.69 152.705C299.699 152.665 299.716 152.628 299.74 152.595C299.763 152.562 299.793 152.534 299.828 152.512C299.862 152.491 299.9 152.476 299.94 152.469C299.98 152.463 300.021 152.464 300.061 152.473C301.359 152.788 302.712 152.794 304.013 152.491C305.313 152.188 306.524 151.585 307.549 150.728C307.575 150.688 307.61 150.653 307.652 150.627C307.693 150.602 307.739 150.586 307.787 150.581C307.836 150.575 307.884 150.581 307.93 150.597C307.976 150.613 308.018 150.639 308.052 150.674C308.086 150.708 308.112 150.749 308.128 150.795C308.145 150.841 308.15 150.89 308.145 150.938C308.14 150.986 308.124 151.033 308.098 151.074C308.072 151.115 308.038 151.15 307.997 151.176C307.104 151.946 306.066 152.531 304.945 152.896C303.824 153.262 302.641 153.402 301.466 153.307Z" fill="#263238"/>
<path d="M329.042 154.28C328.33 155.33 327.419 156.229 326.359 156.926C325.299 157.623 324.112 158.103 322.866 158.34C319.531 158.958 318.234 155.901 319.361 152.921C320.411 150.234 323.437 146.745 326.649 147.424C327.348 147.598 327.993 147.943 328.525 148.429C329.058 148.914 329.461 149.525 329.699 150.205C329.936 150.885 330.001 151.614 329.886 152.325C329.771 153.037 329.481 153.708 329.042 154.28Z" fill="#FFB573"/>
<path d="M311.888 135.86C311.762 135.898 311.628 135.896 311.504 135.855C311.379 135.813 311.271 135.734 311.193 135.628C309.479 133.266 305.712 133.297 305.681 133.297C305.513 133.297 305.352 133.23 305.233 133.111C305.115 132.993 305.048 132.832 305.048 132.664C305.046 132.581 305.06 132.499 305.091 132.423C305.121 132.346 305.166 132.276 305.223 132.217C305.281 132.158 305.35 132.111 305.426 132.079C305.502 132.047 305.583 132.031 305.666 132.031C305.851 132.031 310.112 132.031 312.212 134.887C312.31 135.023 312.35 135.191 312.324 135.356C312.298 135.521 312.208 135.668 312.073 135.767L311.888 135.86Z" fill="#263238"/>
<path d="M292.604 129.174C292.494 129.166 292.389 129.131 292.297 129.072C292.206 129.013 292.13 128.931 292.079 128.835C292.003 128.685 291.99 128.512 292.042 128.353C292.094 128.193 292.207 128.061 292.357 127.985C293.239 127.512 294.222 127.255 295.223 127.236C296.224 127.218 297.216 127.437 298.116 127.877C298.258 127.964 298.361 128.102 298.405 128.263C298.448 128.424 298.427 128.596 298.347 128.742C298.263 128.887 298.125 128.993 297.963 129.037C297.801 129.08 297.628 129.057 297.483 128.974C296.766 128.636 295.98 128.472 295.188 128.496C294.397 128.52 293.622 128.732 292.928 129.113C292.825 129.155 292.715 129.176 292.604 129.174Z" fill="#263238"/>
<path d="M318.716 566.038L318.531 565.962C318.28 565.786 318.079 565.548 317.947 565.272C317.815 564.996 317.755 564.69 317.775 564.385C317.759 564.194 317.796 564.003 317.88 563.832C317.965 563.661 318.095 563.516 318.256 563.414C319.682 562.496 324.076 564.478 324.565 564.711C324.623 564.732 324.673 564.773 324.705 564.825C324.738 564.878 324.753 564.94 324.746 565.002C324.743 565.064 324.723 565.123 324.687 565.174C324.652 565.224 324.603 565.264 324.546 565.287C323.001 565.923 320.169 566.849 318.716 566.038ZM323.657 564.973C321.87 564.242 319.402 563.466 318.656 563.944C318.589 563.996 318.538 564.064 318.506 564.142C318.474 564.219 318.463 564.304 318.474 564.387C318.459 564.591 318.495 564.795 318.579 564.981C318.664 565.167 318.793 565.329 318.956 565.452C319.695 565.971 321.431 565.764 323.657 564.973Z" fill="#4A607A"/>
<path d="M323.899 565.073C322.446 564.262 320.115 562.09 320.235 560.737C320.248 560.487 320.347 560.249 320.514 560.063C320.681 559.876 320.908 559.753 321.155 559.713C321.387 559.645 321.631 559.63 321.869 559.667C322.107 559.704 322.335 559.793 322.535 559.927C324.153 560.989 324.736 564.782 324.769 564.945C324.772 564.999 324.764 565.052 324.743 565.102C324.723 565.151 324.692 565.195 324.652 565.231C324.607 565.264 324.555 565.285 324.499 565.291C324.444 565.298 324.388 565.29 324.336 565.269C324.185 565.217 324.039 565.152 323.899 565.073ZM322.122 560.408C321.878 560.275 321.593 560.242 321.325 560.316C320.932 560.422 320.87 560.613 320.874 560.765C320.827 561.697 322.626 563.618 324.031 564.426C323.777 563.171 323.163 561.085 322.201 560.458L322.122 560.408Z" fill="#4A607A"/>
<path d="M281.27 566.033C280.133 566.141 278.993 565.852 278.043 565.215C277.827 565.025 277.662 564.785 277.562 564.515C277.463 564.246 277.432 563.956 277.472 563.671C277.479 563.498 277.531 563.33 277.623 563.184C277.715 563.038 277.844 562.918 277.997 562.837C279.634 561.926 284.945 564.644 285.532 564.953C285.589 564.983 285.637 565.031 285.667 565.088C285.697 565.146 285.709 565.212 285.702 565.277C285.696 565.342 285.668 565.403 285.623 565.45C285.578 565.498 285.519 565.529 285.455 565.539C284.079 565.838 282.678 566.003 281.27 566.033ZM278.893 563.285C278.691 563.273 278.49 563.31 278.306 563.393C278.245 563.428 278.194 563.477 278.156 563.536C278.118 563.595 278.096 563.663 278.09 563.733C278.066 563.92 278.088 564.11 278.152 564.287C278.217 564.464 278.322 564.624 278.46 564.752C279.263 565.478 281.456 565.601 284.405 565.107C282.683 564.194 280.819 563.578 278.893 563.285Z" fill="#4A607A"/>
<path d="M285.393 565.571H285.269C283.725 564.86 280.545 561.988 280.792 560.475C280.792 560.12 281.101 559.672 281.965 559.58C282.279 559.546 282.596 559.578 282.896 559.674C283.197 559.77 283.474 559.927 283.71 560.136C285.393 561.525 285.702 565.107 285.702 565.262C285.71 565.315 285.703 565.37 285.681 565.419C285.66 565.468 285.624 565.51 285.578 565.54C285.522 565.57 285.456 565.581 285.393 565.571ZM282.228 560.167H282.027C281.456 560.167 281.425 560.46 281.41 560.537C281.255 561.433 283.386 563.702 285.007 564.675C284.882 563.163 284.289 561.727 283.309 560.568C283.014 560.3 282.626 560.156 282.228 560.167Z" fill="#4A607A"/>
<path d="M306.391 138.438L304.029 137.141C304.029 137.141 304.878 139.395 306.391 138.438Z" fill="#263238"/>
<path d="M331.574 262.499L332.948 267.331C333.133 267.717 332.701 268.103 332.068 268.103H276.376C275.897 268.103 275.496 267.856 275.465 267.547L274.971 262.715C274.971 262.375 275.357 262.097 275.897 262.097H330.632C330.811 262.07 330.994 262.093 331.16 262.164C331.327 262.235 331.47 262.351 331.574 262.499Z" fill="#4A607A"/>
<path opacity="0.2" d="M331.574 262.499L332.948 267.331C333.133 267.717 332.701 268.103 332.068 268.103H276.376C275.897 268.103 275.496 267.856 275.465 267.547L274.971 262.715C274.971 262.375 275.357 262.097 275.897 262.097H330.632C330.811 262.07 330.994 262.093 331.16 262.164C331.327 262.235 331.47 262.351 331.574 262.499Z" fill="black"/>
<path d="M324.039 268.613H325.506C325.799 268.613 326.015 268.474 326 268.289L325.305 262.005C325.305 261.819 325.027 261.665 324.749 261.665H323.205C322.912 261.665 322.68 261.819 322.711 262.005L323.391 268.289C323.483 268.474 323.746 268.613 324.039 268.613Z" fill="#4A607A"/>
<path opacity="0.4" d="M324.039 268.613H325.506C325.799 268.613 326.015 268.474 326 268.289L325.305 262.005C325.305 261.819 325.027 261.665 324.749 261.665H323.205C322.912 261.665 322.68 261.819 322.711 262.005L323.391 268.289C323.483 268.474 323.746 268.613 324.039 268.613Z" fill="white"/>
<path d="M280.56 268.613H282.027C282.32 268.613 282.537 268.474 282.521 268.289L281.842 262.005C281.842 261.819 281.564 261.665 281.27 261.665H279.804C279.51 261.665 279.294 261.819 279.31 262.005L279.989 268.289C280.02 268.474 280.267 268.613 280.56 268.613Z" fill="#4A607A"/>
<path opacity="0.4" d="M280.56 268.613H282.027C282.32 268.613 282.537 268.474 282.521 268.289L281.842 262.005C281.842 261.819 281.564 261.665 281.27 261.665H279.804C279.51 261.665 279.294 261.819 279.31 262.005L279.989 268.289C280.02 268.474 280.267 268.613 280.56 268.613Z" fill="white"/>
<path d="M302.207 268.613H303.751C304.045 268.613 304.261 268.474 304.245 268.289L303.566 262.005C303.566 261.819 303.288 261.665 302.995 261.665H301.528C301.234 261.665 301.018 261.819 301.034 262.005L301.713 268.289C301.667 268.474 301.914 268.613 302.207 268.613Z" fill="#4A607A"/>
<path opacity="0.4" d="M302.207 268.613H303.751C304.045 268.613 304.261 268.474 304.245 268.289L303.566 262.005C303.566 261.819 303.288 261.665 302.995 261.665H301.528C301.234 261.665 301.018 261.819 301.034 262.005L301.713 268.289C301.667 268.474 301.914 268.613 302.207 268.613Z" fill="white"/>
<path d="M298.285 276.457L285.161 270.589L288.898 283.605C288.898 283.605 297.235 285.489 300.864 281.305L298.285 276.457Z" fill="#FFB573"/>
<path d="M346.643 201.001C347.245 205.556 347.724 210.141 348.265 214.696L349.654 228.438C350.148 233.07 350.519 237.594 350.951 242.179L351.522 249.05L351.677 250.78C351.677 250.949 351.677 251.66 351.677 252.154C351.677 252.648 351.677 253.219 351.677 253.698C351.446 255.661 350.821 257.556 349.839 259.272C348.25 261.913 346.15 264.212 343.663 266.034C341.578 267.607 339.368 269.006 337.055 270.218C332.73 272.453 328.233 274.338 323.607 275.854C319.083 277.398 314.544 278.68 309.989 279.822C305.434 280.965 300.879 281.907 296.17 282.632L294.626 276.07C298.872 274.665 303.211 273.229 307.426 271.608C311.641 269.987 315.856 268.397 319.901 266.559C323.883 264.817 327.742 262.805 331.45 260.538C333.16 259.505 334.782 258.333 336.299 257.033C337.488 256.069 338.479 254.884 339.217 253.543C339.378 253.25 339.462 252.921 339.464 252.586C339.464 252.586 339.464 252.586 339.464 252.462C339.464 252.339 339.464 252.462 339.464 252.123L339.217 250.424L338.229 243.584C337.626 238.952 336.947 234.459 336.391 229.889L334.646 216.194C334.152 211.562 333.581 207.053 333.102 202.468L346.643 201.001Z" fill="#FFB573"/>
<path d="M340.344 184.974C345.748 186.611 352.263 205.262 352.263 205.262L333.319 224.763C333.319 224.763 323.591 204.691 325.861 197.712C328.239 190.425 334.168 183.091 340.344 184.974Z" fill="#4A607A"/>
<path d="M274.307 273.291L278.013 284.007L288.898 283.605L285.161 270.589L274.307 273.291Z" fill="#FFB573"/>
</svg>
