<svg width="48" height="62" viewBox="0 0 48 62" fill="none" xmlns="http://www.w3.org/2000/svg">
<path d="M46.6944 15.0631L32.1635 0.532207C31.8243 0.192902 31.3613 0 30.8789 0H5.44922C2.44452 0 0 2.44452 0 5.44922V56.5508C0 59.5555 2.44452 62 5.44922 62H41.7773C44.782 62 47.2266 59.5555 47.2266 56.5508V16.3477C47.2266 15.8524 47.0186 15.3873 46.6944 15.0631ZM32.6953 6.20157L41.025 14.5312H34.5117C33.5102 14.5312 32.6953 13.7164 32.6953 12.7148V6.20157ZM41.7773 58.3672H5.44922C4.44765 58.3672 3.63281 57.5523 3.63281 56.5508V5.44922C3.63281 4.44765 4.44765 3.63281 5.44922 3.63281H29.0625V12.7148C29.0625 15.7195 31.507 18.1641 34.5117 18.1641H43.5938V56.5508C43.5938 57.5523 42.7789 58.3672 41.7773 58.3672Z" fill="black"/>
<path d="M34.5117 25.6719H12.7148C11.7117 25.6719 10.8984 26.4851 10.8984 27.4883C10.8984 28.4914 11.7117 29.3047 12.7148 29.3047H34.5117C35.5149 29.3047 36.3281 28.4914 36.3281 27.4883C36.3281 26.4851 35.5149 25.6719 34.5117 25.6719Z" fill="#DDD0A4"/>
<path d="M34.5117 32.9375H12.7148C11.7117 32.9375 10.8984 33.7508 10.8984 34.7539C10.8984 35.757 11.7117 36.5703 12.7148 36.5703H34.5117C35.5149 36.5703 36.3281 35.757 36.3281 34.7539C36.3281 33.7508 35.5149 32.9375 34.5117 32.9375Z" fill="#DDD0A4"/>
<path d="M34.5117 40.2031H12.7148C11.7117 40.2031 10.8984 41.0164 10.8984 42.0195C10.8984 43.0227 11.7117 43.8359 12.7148 43.8359H34.5117C35.5149 43.8359 36.3281 43.0227 36.3281 42.0195C36.3281 41.0164 35.5149 40.2031 34.5117 40.2031Z" fill="#DDD0A4"/>
<path d="M27.2461 47.4688H12.7148C11.7117 47.4688 10.8984 48.282 10.8984 49.2852C10.8984 50.2883 11.7117 51.1016 12.7148 51.1016H27.2461C28.2492 51.1016 29.0625 50.2883 29.0625 49.2852C29.0625 48.282 28.2492 47.4688 27.2461 47.4688Z" fill="#DDD0A4"/>
</svg>
