<svg width="401" height="1101" viewBox="0 0 401 1101" fill="none" xmlns="http://www.w3.org/2000/svg">
<g filter="url(#filter0_d_60_2216)">
<rect x="18" y="16" width="365" height="1065" rx="10" fill="white"/>
<g clip-path="url(#clip0_60_2216)">
<path d="M198 88.17L193.83 84L192.41 85.41L198 91L210 79L208.59 77.59L198 88.17Z" fill="#A89060"/>
</g>
<g clip-path="url(#clip1_60_2216)">
<path d="M198 149.17L193.83 145L192.41 146.41L198 152L210 140L208.59 138.59L198 149.17Z" fill="#A89060"/>
</g>
<g clip-path="url(#clip2_60_2216)">
<path d="M198 208.17L193.83 204L192.41 205.41L198 211L210 199L208.59 197.59L198 208.17Z" fill="#A89060"/>
</g>
<g clip-path="url(#clip3_60_2216)">
<path d="M198 265.17L193.83 261L192.41 262.41L198 268L210 256L208.59 254.59L198 265.17Z" fill="#A89060"/>
</g>
<g clip-path="url(#clip4_60_2216)">
<path d="M198 316.17L193.83 312L192.41 313.41L198 319L210 307L208.59 305.59L198 316.17Z" fill="#A89060"/>
</g>
<g clip-path="url(#clip5_60_2216)">
<path d="M198 384.17L193.83 380L192.41 381.41L198 387L210 375L208.59 373.59L198 384.17Z" fill="#A89060"/>
</g>
<g clip-path="url(#clip6_60_2216)">
<path d="M198 445.17L193.83 441L192.41 442.41L198 448L210 436L208.59 434.59L198 445.17Z" fill="#A89060"/>
</g>
<g clip-path="url(#clip7_60_2216)">
<path d="M198 490.17L193.83 486L192.41 487.41L198 493L210 481L208.59 479.59L198 490.17Z" fill="#A89060"/>
</g>
<g clip-path="url(#clip8_60_2216)">
<path d="M198 532.17L193.83 528L192.41 529.41L198 535L210 523L208.59 521.59L198 532.17Z" fill="#A89060"/>
</g>
<g clip-path="url(#clip9_60_2216)">
<path d="M198 579.17L193.83 575L192.41 576.41L198 582L210 570L208.59 568.59L198 579.17Z" fill="#A89060"/>
</g>
<g clip-path="url(#clip10_60_2216)">
<path d="M198 613.17L193.83 609L192.41 610.41L198 616L210 604L208.59 602.59L198 613.17Z" fill="#A89060"/>
</g>
<g clip-path="url(#clip11_60_2216)">
<path d="M198 853.17L193.83 849L192.41 850.41L198 856L210 844L208.59 842.59L198 853.17Z" fill="#A89060"/>
</g>
<g filter="url(#filter1_d_60_2216)">
<rect x="118" y="990" width="165" height="59" rx="6" fill="white"/>
<rect x="118.5" y="990.5" width="164" height="58" rx="5.5" stroke="#4A607A"/>
<path d="M174.125 1019.12L179.773 1025H177.844L172.641 1019.52H172.578V1025H171.172V1013.73H172.578V1018.92H172.641L177.484 1013.73H179.25L174.125 1019.12ZM181.844 1025.08C181.562 1025.08 181.354 1025.04 181.219 1024.98V1023.71C181.385 1023.75 181.594 1023.77 181.844 1023.77C182.266 1023.77 182.622 1023.68 182.914 1023.49C183.206 1023.3 183.464 1023.01 183.688 1022.59L179.836 1013.73H181.336L184.359 1021.03H184.484L187.438 1013.73H188.898L185.445 1021.77C184.909 1023.02 184.38 1023.89 183.859 1024.37C183.344 1024.84 182.672 1025.08 181.844 1025.08ZM199.102 1025H197.711V1015.01H191.68V1025H190.266V1013.73H199.102V1025ZM209.062 1025V1016.03H208.938L202.844 1025H201.453V1013.73H202.844V1022.73H202.969L209.062 1013.73H210.453V1025H209.062ZM217.055 1025H215.648V1014.99H212.094V1013.73H220.609V1014.99H217.055V1025ZM222.25 1025V1013.73H223.656V1017.91H226.414C227.477 1017.91 228.346 1018.24 229.023 1018.91C229.701 1019.57 230.039 1020.42 230.039 1021.46C230.039 1022.5 229.703 1023.35 229.031 1024.02C228.359 1024.67 227.492 1025 226.43 1025H222.25ZM223.656 1023.73H226.062C226.87 1023.73 227.492 1023.54 227.93 1023.14C228.372 1022.74 228.594 1022.18 228.594 1021.46C228.594 1020.73 228.372 1020.17 227.93 1019.77C227.492 1019.37 226.87 1019.17 226.062 1019.17H223.656V1023.73Z" fill="black"/>
</g>
<path d="M203.168 927L210.586 912.621V912.562H201.797V910.09H213.562V912.609L206.332 927H203.168ZM221.496 927L228.914 912.621V912.562H220.125V910.09H231.891V912.609L224.66 927H221.496ZM240.363 927.34C238.621 927.34 237.176 926.867 236.027 925.922C234.879 924.969 234.273 923.742 234.211 922.242H237.047C237.141 923.023 237.496 923.66 238.113 924.152C238.738 924.645 239.496 924.891 240.387 924.891C241.395 924.891 242.211 924.574 242.836 923.941C243.469 923.309 243.785 922.492 243.785 921.492C243.785 920.477 243.469 919.648 242.836 919.008C242.211 918.359 241.402 918.035 240.41 918.035C239.723 918.035 239.094 918.184 238.523 918.48C237.961 918.777 237.523 919.191 237.211 919.723H234.469L235.348 910.09H245.707V912.562H237.738L237.305 917.508H237.375C237.727 916.961 238.234 916.531 238.898 916.219C239.562 915.898 240.309 915.738 241.137 915.738C242.754 915.738 244.086 916.273 245.133 917.344C246.18 918.406 246.703 919.762 246.703 921.41C246.703 923.168 246.113 924.598 244.934 925.699C243.762 926.793 242.238 927.34 240.363 927.34ZM255.129 927.34C253.066 927.34 251.445 926.555 250.266 924.984C249.094 923.406 248.508 921.254 248.508 918.527C248.508 915.816 249.098 913.676 250.277 912.105C251.457 910.535 253.074 909.75 255.129 909.75C257.184 909.75 258.797 910.535 259.969 912.105C261.141 913.668 261.727 915.805 261.727 918.516C261.727 921.234 261.141 923.387 259.969 924.973C258.797 926.551 257.184 927.34 255.129 927.34ZM255.129 924.867C256.246 924.867 257.113 924.309 257.73 923.191C258.355 922.074 258.668 920.52 258.668 918.527C258.668 916.551 258.355 915.008 257.73 913.898C257.105 912.781 256.238 912.223 255.129 912.223C254.02 912.223 253.145 912.781 252.504 913.898C251.871 915.016 251.555 916.555 251.555 918.516C251.555 920.508 251.867 922.066 252.492 923.191C253.125 924.309 254.004 924.867 255.129 924.867ZM269.145 910.09H275.719C277.406 910.09 278.777 910.613 279.832 911.66C280.887 912.699 281.414 914.062 281.414 915.75C281.414 917.43 280.871 918.793 279.785 919.84C278.707 920.887 277.309 921.41 275.59 921.41H272.168V927H269.145V910.09ZM272.168 912.562V918.973H274.91C275.996 918.973 276.84 918.691 277.441 918.129C278.043 917.566 278.344 916.773 278.344 915.75C278.344 914.734 278.043 913.949 277.441 913.395C276.848 912.84 276.008 912.562 274.922 912.562H272.168ZM285.809 927.141C285.199 927.141 284.773 927.086 284.531 926.977V924.457C284.82 924.52 285.152 924.551 285.527 924.551C286.105 924.551 286.594 924.441 286.992 924.223C287.398 923.996 287.754 923.629 288.059 923.121L282.387 910.09H285.586L289.594 920.051H289.746L293.59 910.09H296.766L291.586 922.16C291.062 923.379 290.539 924.34 290.016 925.043C289.5 925.746 288.902 926.273 288.223 926.625C287.551 926.969 286.746 927.141 285.809 927.141ZM311.074 921.762C311.074 923.324 310.547 924.59 309.492 925.559C308.438 926.52 307.066 927 305.379 927H298.723V910.09H309.469V912.633H301.746V916.582H305.285C306.996 916.582 308.387 917.062 309.457 918.023C310.535 918.977 311.074 920.223 311.074 921.762ZM301.746 924.516H304.617C305.688 924.516 306.516 924.277 307.102 923.801C307.688 923.324 307.98 922.645 307.98 921.762C307.98 920.871 307.688 920.188 307.102 919.711C306.516 919.234 305.684 918.996 304.605 918.996H301.746V924.516Z" fill="#DC0000"/>
<path d="M82.6094 925.237C80.8281 925.237 79.4131 924.646 78.3643 923.462C77.3213 922.278 76.7998 920.676 76.7998 918.654C76.7998 916.645 77.3242 915.048 78.373 913.864C79.4277 912.675 80.8398 912.08 82.6094 912.08C84.0039 912.08 85.1904 912.47 86.1689 913.249C87.1533 914.022 87.751 915.042 87.9619 916.308H85.9844C85.7793 915.558 85.3691 914.957 84.7539 914.506C84.1445 914.055 83.4297 913.829 82.6094 913.829C81.4551 913.829 80.5322 914.269 79.8408 915.147C79.1553 916.021 78.8125 917.189 78.8125 918.654C78.8125 920.137 79.1553 921.314 79.8408 922.188C80.5264 923.055 81.4521 923.488 82.6182 923.488C83.4619 923.488 84.1768 923.292 84.7627 922.899C85.3545 922.507 85.7617 921.956 85.9844 921.247H87.9619C87.6865 922.507 87.0801 923.488 86.1426 924.191C85.2109 924.889 84.0332 925.237 82.6094 925.237ZM90.6162 928.445C90.2588 928.445 90.001 928.431 89.8428 928.401V926.863C89.9365 926.887 90.1416 926.898 90.458 926.898C90.9033 926.898 91.252 926.796 91.5039 926.591C91.7559 926.392 91.9551 926.055 92.1016 925.58C92.1016 925.574 92.1309 925.478 92.1895 925.29L92.2686 925.009L88.9287 915.754H90.9854L93.332 923.277H93.3584L95.7051 915.754H97.709L94.2373 925.483C93.8447 926.603 93.3848 927.376 92.8574 927.804C92.3301 928.231 91.583 928.445 90.6162 928.445ZM104.96 925V917.257H100.864V925H98.9746V915.754H106.858V925H104.96ZM114.391 917.784C113.975 917.339 113.438 917.116 112.782 917.116C112.126 917.116 111.581 917.342 111.147 917.793C110.714 918.238 110.474 918.815 110.427 919.524H115.05C115.026 918.81 114.807 918.229 114.391 917.784ZM115.041 922.284H116.843C116.708 923.134 116.274 923.828 115.542 924.367C114.81 924.906 113.916 925.176 112.861 925.176C111.508 925.176 110.441 924.751 109.662 923.901C108.889 923.046 108.502 921.886 108.502 920.421C108.502 918.968 108.889 917.799 109.662 916.914C110.441 916.029 111.481 915.587 112.782 915.587C114.06 915.587 115.073 916.006 115.823 916.844C116.573 917.676 116.948 918.795 116.948 920.201V920.852H110.418V920.966C110.418 921.774 110.644 922.422 111.095 922.908C111.546 923.395 112.149 923.638 112.905 923.638C113.438 923.638 113.896 923.515 114.276 923.269C114.657 923.022 114.912 922.694 115.041 922.284ZM123.399 915.604C124.577 915.604 125.521 916.035 126.229 916.896C126.938 917.758 127.293 918.918 127.293 920.377C127.293 921.836 126.941 922.999 126.238 923.866C125.535 924.728 124.601 925.158 123.435 925.158C122.778 925.158 122.195 925.009 121.686 924.71C121.182 924.411 120.795 924.001 120.525 923.479H120.481V928.059H118.583V915.754H120.42V917.345H120.455C120.73 916.806 121.126 916.381 121.642 916.07C122.157 915.76 122.743 915.604 123.399 915.604ZM122.898 923.55C123.648 923.55 124.243 923.266 124.683 922.697C125.122 922.123 125.342 921.35 125.342 920.377C125.342 919.41 125.122 918.64 124.683 918.065C124.243 917.491 123.648 917.204 122.898 917.204C122.172 917.204 121.586 917.494 121.141 918.074C120.695 918.654 120.473 919.422 120.473 920.377C120.473 921.338 120.692 922.108 121.132 922.688C121.577 923.263 122.166 923.55 122.898 923.55ZM141.839 927.426H140.09V925H132.584V915.754H134.474V923.497H138.508V915.754H140.397V923.497H141.839V927.426ZM148.615 917.784C148.199 917.339 147.663 917.116 147.007 917.116C146.351 917.116 145.806 917.342 145.372 917.793C144.938 918.238 144.698 918.815 144.651 919.524H149.274C149.251 918.81 149.031 918.229 148.615 917.784ZM149.266 922.284H151.067C150.933 923.134 150.499 923.828 149.767 924.367C149.034 924.906 148.141 925.176 147.086 925.176C145.732 925.176 144.666 924.751 143.887 923.901C143.113 923.046 142.727 921.886 142.727 920.421C142.727 918.968 143.113 917.799 143.887 916.914C144.666 916.029 145.706 915.587 147.007 915.587C148.284 915.587 149.298 916.006 150.048 916.844C150.798 917.676 151.173 918.795 151.173 920.201V920.852H144.643V920.966C144.643 921.774 144.868 922.422 145.319 922.908C145.771 923.395 146.374 923.638 147.13 923.638C147.663 923.638 148.12 923.515 148.501 923.269C148.882 923.022 149.137 922.694 149.266 922.284ZM158.872 925V920.975H154.688V925H152.799V915.754H154.688V919.48H158.872V915.754H160.762V925H158.872ZM166.062 923.655C166.729 923.655 167.289 923.453 167.74 923.049C168.197 922.639 168.426 922.135 168.426 921.537V920.808L166.149 920.948C165.581 920.989 165.142 921.13 164.831 921.37C164.526 921.604 164.374 921.921 164.374 922.319C164.374 922.724 164.526 923.049 164.831 923.295C165.142 923.535 165.552 923.655 166.062 923.655ZM165.534 925.158C164.626 925.158 163.885 924.9 163.311 924.385C162.742 923.869 162.458 923.198 162.458 922.372C162.458 921.563 162.757 920.922 163.354 920.447C163.952 919.967 164.799 919.697 165.895 919.639L168.426 919.489V918.777C168.426 918.262 168.262 917.86 167.934 917.573C167.605 917.28 167.151 917.134 166.571 917.134C166.032 917.134 165.593 917.254 165.253 917.494C164.919 917.734 164.708 918.065 164.62 918.487H162.827C162.88 917.632 163.249 916.935 163.935 916.396C164.62 915.856 165.522 915.587 166.642 915.587C167.761 915.587 168.651 915.862 169.313 916.413C169.981 916.964 170.315 917.702 170.315 918.628V925H168.496V923.479H168.452C168.188 923.989 167.787 924.396 167.248 924.701C166.715 925.006 166.144 925.158 165.534 925.158Z" fill="#DC0000"/>
</g>
<defs>
<filter id="filter0_d_60_2216" x="0" y="0" width="401" height="1101" filterUnits="userSpaceOnUse" color-interpolation-filters="sRGB">
<feFlood flood-opacity="0" result="BackgroundImageFix"/>
<feColorMatrix in="SourceAlpha" type="matrix" values="0 0 0 0 0 0 0 0 0 0 0 0 0 0 0 0 0 0 127 0" result="hardAlpha"/>
<feOffset dy="2"/>
<feGaussianBlur stdDeviation="9"/>
<feColorMatrix type="matrix" values="0 0 0 0 0.160784 0 0 0 0 0.160784 0 0 0 0 0.160784 0 0 0 0.1 0"/>
<feBlend mode="normal" in2="BackgroundImageFix" result="effect1_dropShadow_60_2216"/>
<feBlend mode="normal" in="SourceGraphic" in2="effect1_dropShadow_60_2216" result="shape"/>
</filter>
<filter id="filter1_d_60_2216" x="100" y="974" width="201" height="95" filterUnits="userSpaceOnUse" color-interpolation-filters="sRGB">
<feFlood flood-opacity="0" result="BackgroundImageFix"/>
<feColorMatrix in="SourceAlpha" type="matrix" values="0 0 0 0 0 0 0 0 0 0 0 0 0 0 0 0 0 0 127 0" result="hardAlpha"/>
<feOffset dy="2"/>
<feGaussianBlur stdDeviation="9"/>
<feColorMatrix type="matrix" values="0 0 0 0 0.160784 0 0 0 0 0.160784 0 0 0 0 0.160784 0 0 0 0.1 0"/>
<feBlend mode="normal" in2="BackgroundImageFix" result="effect1_dropShadow_60_2216"/>
<feBlend mode="normal" in="SourceGraphic" in2="effect1_dropShadow_60_2216" result="shape"/>
</filter>
<clipPath id="clip0_60_2216">
<rect width="24" height="24" fill="white" transform="translate(189 72)"/>
</clipPath>
<clipPath id="clip1_60_2216">
<rect width="24" height="24" fill="white" transform="translate(189 133)"/>
</clipPath>
<clipPath id="clip2_60_2216">
<rect width="24" height="24" fill="white" transform="translate(189 192)"/>
</clipPath>
<clipPath id="clip3_60_2216">
<rect width="24" height="24" fill="white" transform="translate(189 249)"/>
</clipPath>
<clipPath id="clip4_60_2216">
<rect width="24" height="24" fill="white" transform="translate(189 300)"/>
</clipPath>
<clipPath id="clip5_60_2216">
<rect width="24" height="24" fill="white" transform="translate(189 368)"/>
</clipPath>
<clipPath id="clip6_60_2216">
<rect width="24" height="24" fill="white" transform="translate(189 429)"/>
</clipPath>
<clipPath id="clip7_60_2216">
<rect width="24" height="24" fill="white" transform="translate(189 474)"/>
</clipPath>
<clipPath id="clip8_60_2216">
<rect width="24" height="24" fill="white" transform="translate(189 516)"/>
</clipPath>
<clipPath id="clip9_60_2216">
<rect width="24" height="24" fill="white" transform="translate(189 563)"/>
</clipPath>
<clipPath id="clip10_60_2216">
<rect width="24" height="24" fill="white" transform="translate(189 597)"/>
</clipPath>
<clipPath id="clip11_60_2216">
<rect width="24" height="24" fill="white" transform="translate(189 837)"/>
</clipPath>
</defs>
</svg>
