<svg width="69" height="73" viewBox="0 0 69 73" fill="none" xmlns="http://www.w3.org/2000/svg">
<path d="M17.9883 33.4851L22.6725 38.0923C23.0393 38.453 23.5177 38.644 24.009 38.644C24.2298 38.644 24.4533 38.6054 24.6705 38.5264C25.3713 38.2713 25.8508 37.6518 25.922 36.9096L26.5487 30.3697C26.5526 30.3282 26.5744 30.2902 26.6082 30.2656C30.9123 27.1205 33.482 22.0645 33.482 16.7409C33.482 12.2252 31.7112 7.99189 28.4955 4.82081C25.2805 1.6503 21.0287 -0.0612041 16.503 0.00167284C12.1406 0.0624111 8.02611 1.80799 4.91705 4.91705C1.808 8.02611 0.0624111 12.1408 0.00167284 16.5029C-0.0612041 21.0215 1.6503 25.2805 4.82081 28.4955C7.99189 31.711 12.2253 33.4819 16.7409 33.4819C17.1193 33.4819 17.5021 33.469 17.8785 33.4438C17.9196 33.4412 17.9587 33.4559 17.9883 33.4851ZM16.7411 31.3429C12.8022 31.3429 9.10971 29.7982 6.34355 26.9934C3.5781 24.1892 2.08531 20.474 2.1402 16.5323C2.19296 12.73 3.7164 9.14193 6.42924 6.42895C9.14221 3.71597 12.7303 2.19281 16.5326 2.13977C20.4715 2.08674 24.1895 3.57767 26.9937 6.34326C29.7985 9.10928 31.3432 12.8018 31.3432 16.7406C31.3432 21.3843 29.1013 25.7946 25.3461 28.5387C24.8195 28.9236 24.4818 29.5165 24.4196 30.1655L23.8375 36.2386L19.4877 31.9604C19.0592 31.5391 18.4829 31.3046 17.8871 31.3046C17.8366 31.3046 17.7859 31.3063 17.7351 31.3097C17.4065 31.3316 17.0718 31.3429 16.7411 31.3429Z" fill="black"/>
<path d="M68.639 55.0423L63.3736 25.5626C62.9608 23.2551 60.9603 21.5804 58.6167 21.5804H55.2778C54.7201 20.6187 53.9577 19.7907 53.0496 19.1561L54.3264 15.65C54.6689 14.7088 54.1814 13.6641 53.2397 13.3212L51.4154 12.6571L53.4242 7.13777C53.7669 6.19647 53.2826 5.15693 52.3409 4.81417L48.4613 3.40222C47.5197 3.0596 46.4805 3.54408 46.1379 4.48567L44.1289 10.0049L42.3039 9.3406C41.3638 8.99841 40.3204 9.48475 39.9765 10.4259L31.9292 32.5344C31.5871 33.4758 32.074 34.5203 33.0148 34.8629L33.2596 34.9521L32.3239 37.5229C32.1521 37.9952 32.1743 38.5061 32.3866 38.9616C32.5991 39.4172 32.9762 39.7628 33.4484 39.9346L40.3586 42.4497C40.5688 42.5261 40.7863 42.5642 41.0033 42.5642C41.2742 42.5642 41.5444 42.5048 41.7974 42.3869C42.2529 42.1745 42.5984 41.7974 42.7703 41.3252L43.7065 38.753L43.9503 38.8417C44.1533 38.9159 44.3636 38.9528 44.5735 38.9528C45.2982 38.9528 46.0056 38.5085 46.2787 37.757L48.0423 32.9143C51.1292 33.1892 53.9693 31.5794 55.3845 28.9712C55.6408 29.1129 55.8149 29.3858 55.8149 29.6989V37.9299C55.8149 38.5205 56.2936 38.9993 56.8843 38.9993C57.475 38.9993 57.9536 38.5205 57.9536 37.9299V29.6988C57.9536 28.4666 57.1989 27.4077 56.1277 26.9587C56.2377 26.4457 56.297 25.9143 56.297 25.369C56.297 24.8022 56.2324 24.2506 56.1139 23.719H58.6166C59.9229 23.719 61.0381 24.6526 61.2683 25.9388L66.5337 55.4183C66.9527 57.7654 66.3154 60.1602 64.7845 61.9886C63.2537 63.817 61.0082 64.8658 58.6239 64.8658C57.5733 64.8658 32.1059 64.8655 31.0562 64.8655V56.2119C31.4959 56.2119 49.0284 56.2115 53.056 56.2115C55.7566 56.2115 57.9537 54.0145 57.9537 51.3139V42.9203C57.9537 42.3298 57.4751 41.851 56.8844 41.851C56.2937 41.851 55.8151 42.3298 55.8151 42.9203V51.3139C55.8151 52.8352 54.5774 54.0728 53.056 54.0728H51.0736V50.2667C51.0736 49.2839 50.2742 48.4844 49.2914 48.4844H26.1943C25.2115 48.4844 24.4121 49.2839 24.4121 50.2667V54.4298C24.4121 55.4126 25.2115 56.212 26.1943 56.212H28.9177V64.8657H19.3396C18.3568 64.8657 17.5574 65.6651 17.5574 66.6479V71.2175C17.5574 72.2003 18.3568 72.9997 19.3396 72.9997H27.4916C28.0823 72.9997 28.561 72.521 28.561 71.9304C28.561 71.3399 28.0823 70.8611 27.4916 70.8611H19.696V67.0041C23.2351 67.0041 52.6189 67.0043 55.7897 67.0043V70.8611H32.4819C31.8912 70.8611 31.4125 71.3399 31.4125 71.9304C31.4125 72.521 31.8912 72.9997 32.4819 72.9997H56.1463C57.1291 72.9997 57.9285 72.2003 57.9285 71.2175V67.0043H58.624C61.643 67.0043 64.4861 65.6765 66.4244 63.3613C68.3625 61.0464 69.1697 58.0142 68.639 55.0423ZM48.036 5.52335L51.303 6.71231L49.4055 11.9255L46.1386 10.7363L48.036 5.52335ZM40.8486 40.3519L34.4215 38.0126L35.2694 35.6831L41.6968 38.0216L40.8486 40.3519ZM44.3797 36.7219C42.5078 36.0408 35.322 33.4263 34.049 32.9632L41.8758 11.4606C42.8329 11.8091 52.2064 15.2211 52.2064 15.2211L51.1267 18.1861C50.37 17.9319 49.5613 17.7921 48.72 17.7921C44.542 17.7921 41.1429 21.1911 41.1429 25.3691C41.1429 28.5684 43.1372 31.309 45.947 32.4183L44.3797 36.7219ZM48.7201 30.8075C45.7214 30.8075 43.2817 28.3678 43.2817 25.3691C43.2817 22.3704 45.7213 19.9307 48.7201 19.9307C51.7189 19.9307 54.1586 22.3704 54.1586 25.3691C54.1586 28.3678 51.7188 30.8075 48.7201 30.8075ZM26.5508 50.6228H48.935V54.0725C48.8122 54.0725 30.0699 54.0729 26.5508 54.0729V50.6228Z" fill="black"/>
<path d="M48.72 22.1304C46.9343 22.1304 45.4814 23.5831 45.4814 25.3689C45.4814 27.1547 46.9342 28.6074 48.72 28.6074C50.5058 28.6074 51.9586 27.1547 51.9586 25.3689C51.9586 23.5831 50.5058 22.1304 48.72 22.1304ZM48.72 26.4689C48.1134 26.4689 47.6201 25.9756 47.6201 25.369C47.6201 24.7625 48.1134 24.2692 48.72 24.2692C49.3265 24.2692 49.82 24.7625 49.82 25.369C49.82 25.9756 49.3265 26.4689 48.72 26.4689Z" fill="black"/>
<path d="M23.3883 15.7027C25.2297 15.7027 26.7278 14.2047 26.7278 12.3633C26.7278 10.5219 25.2297 9.0238 23.3883 9.0238C21.5469 9.0238 20.0488 10.5219 20.0488 12.3633C20.0488 14.2047 21.5469 15.7027 23.3883 15.7027ZM23.3883 11.1625C24.0504 11.1625 24.5891 11.7011 24.5891 12.3633C24.5891 13.0254 24.0504 13.5641 23.3883 13.5641C22.7262 13.5641 22.1875 13.0254 22.1875 12.3633C22.1875 11.7011 22.7262 11.1625 23.3883 11.1625Z" fill="black"/>
<path d="M9.07921 13.2517C7.23781 13.2517 5.73975 14.7498 5.73975 16.5912C5.73975 18.4326 7.23781 19.9306 9.07921 19.9306C10.9206 19.9306 12.4188 18.4326 12.4188 16.5912C12.4188 14.7498 10.9206 13.2517 9.07921 13.2517ZM9.07921 17.792C8.41708 17.792 7.87842 17.2533 7.87842 16.5912C7.87842 15.929 8.41708 15.3904 9.07921 15.3904C9.74148 15.3904 10.2801 15.929 10.2801 16.5912C10.2801 17.2533 9.74148 17.792 9.07921 17.792Z" fill="black"/>
<path d="M25.5399 20.2651L23.911 21.8939C23.4932 22.3115 23.4932 22.9885 23.9108 23.4061C24.1197 23.615 24.3933 23.7194 24.6671 23.7194C24.9407 23.7194 25.2144 23.615 25.4232 23.4061L27.0521 21.7773C27.4699 21.3597 27.4699 20.6827 27.0523 20.2651C26.6347 19.8475 25.9574 19.8475 25.5399 20.2651Z" fill="black"/>
<path d="M14.9264 7.25845C14.5089 6.8407 13.8318 6.84084 13.4142 7.25845L11.7854 8.88727C11.3677 9.30488 11.3677 9.98198 11.7855 10.3995C11.9942 10.6083 12.268 10.7127 12.5416 10.7127C12.8152 10.7127 13.089 10.6083 13.2978 10.3995L14.9266 8.77064C15.3441 8.35303 15.3441 7.67606 14.9264 7.25845Z" fill="black"/>
<path d="M18.3115 16.1779L16.6827 14.549C16.2651 14.1314 15.588 14.1314 15.1705 14.549C14.7528 14.9667 14.7528 15.6436 15.1704 16.0612L16.7992 17.69C17.0081 17.8989 17.2817 18.0033 17.5554 18.0033C17.829 18.0033 18.1028 17.8989 18.3115 17.69C18.7291 17.2726 18.7291 16.5955 18.3115 16.1779Z" fill="black"/>
<path d="M15.3387 23.0778L13.7099 24.7066C13.2923 25.1242 13.2923 25.8013 13.7101 26.2188C13.9188 26.4277 14.1925 26.532 14.4662 26.532C14.7398 26.532 15.0135 26.4277 15.2224 26.2188L16.8512 24.59C17.2688 24.1724 17.2688 23.4953 16.8511 23.0778C16.4335 22.66 15.7563 22.6602 15.3387 23.0778Z" fill="black"/>
</svg>
