<svg width="55" height="55" viewBox="0 0 55 55" fill="none" xmlns="http://www.w3.org/2000/svg">
<g clip-path="url(#clip0_60_2234)">
<path d="M27.5 55C42.6627 55 55 42.6638 55 27.5C55 24.8827 54.6347 22.3035 53.9112 19.8333C53.5548 18.6187 52.2865 17.921 51.0685 18.2774C49.8527 18.6327 49.1573 19.9055 49.5125 21.1201C50.1117 23.1724 50.4167 25.3197 50.4167 27.5C50.4167 40.1361 40.1361 50.4167 27.5 50.4167C14.8639 50.4167 4.58333 40.1361 4.58333 27.5C4.58333 14.8639 14.8639 4.58333 27.5 4.58333C32.0923 4.58333 36.5106 5.92611 40.2771 8.46563C41.3255 9.17338 42.7511 8.89532 43.4577 7.84683C44.1649 6.79723 43.8891 5.37277 42.8395 4.66558C38.3132 1.61357 33.0093 0 27.5 0C12.3373 0 0 12.3362 0 27.5C0 42.6638 12.3373 55 27.5 55Z" fill="black"/>
<path d="M51.0881 5.25495L27.5 28.8419L19.9536 21.2966C19.0585 20.402 17.6083 20.402 16.7131 21.2966C15.8185 22.1918 15.8185 23.642 16.7131 24.5372L25.8798 33.7038C26.3279 34.152 26.9131 34.3752 27.5 34.3752C28.0869 34.3752 28.6722 34.152 29.1203 33.7038L54.3287 8.49551C55.2233 7.60033 55.2233 6.15013 54.3287 5.25495C53.4335 4.36033 51.9833 4.36033 51.0881 5.25495Z" fill="#DDD0A4"/>
</g>
<defs>
<clipPath id="clip0_60_2234">
<rect width="55" height="55" fill="white"/>
</clipPath>
</defs>
</svg>
